# xmcd
#
# Track frame offsets:
#	150
#	18050
#	37685
#	56315
#	74360
#	92538
#	118073
#	144281
#	165973
#	175438
#	195970
#	213565
#	234100
#	255003
#	279601
#	298586
#
# Disc length: 4313 seconds
#
# Revision: 1
# Processed by: cddbd v1.4PL0 Copyright (c) Steve Scherf et al.
# Submitted via: EasyCDDAExtractor 5.0.6
#
DISCID=c610d710
DTITLE=U2 - Kris' Pics
DYEAR=1900
DGENRE=
TTITLE0=Where Did It All Go Wrong?
TTITLE1=Holy Joe (Garage Mix)
TTITLE2=Summer Rain
TTITLE3=Satellite of Love
TTITLE4=Slow Dancing (w/ Willie Nelson)
TTITLE5=Miss Sarajevo
TTITLE6=I'm Not Your Baby
TTITLE7=Hold Me, Thrill Me, Kiss Me, Kill Me
TTITLE8=Dancin' Shoes
TTITLE9=Dirty Day (Bitter Kiss)
TTITLE10=Lady With The Spinning Head (UVI)
TTITLE11=Salome
TTITLE12=North and South of the River
TTITLE13=Your Blue Room
TTITLE14=Two Shots of Happy, One Shot of Sad
TTITLE15=One (Live in Sarajevo)
EXTD=
EXTT0=
EXTT1=
EXTT2=
EXTT3=
EXTT4=
EXTT5=
EXTT6=
EXTT7=
EXTT8=
EXTT9=
EXTT10=
EXTT11=
EXTT12=
EXTT13=
EXTT14=
EXTT15=
PLAYORDER=
